<?xml version="1.0" encoding="utf-8"?>
<!-- Generator: Adobe Illustrator 23.0.3, SVG Export Plug-In . SVG Version: 6.00 Build 0)  -->
<svg version="1.1" id="Layer_1" xmlns="http://www.w3.org/2000/svg" xmlns:xlink="http://www.w3.org/1999/xlink" x="0px" y="0px"
	 viewBox="0 0 50 50" style="enable-background:new 0 0 50 50;" xml:space="preserve">
<style type="text/css">
	.st0{fill:#2980B9;}
	.st1{fill:#037CC6;}
	.st2{fill:#9B59B6;}
	.st3{fill:#27AE60;}
	.st4{fill:#E74C3C;}
	.st5{fill:#34495E;}
	.st6{fill:#D35400;}
	.st7{fill:#E22D2D;}
	.st8{fill:#1ABC9C;}
	.st9{fill:#F39C12;}
	.st10{fill:#E67E22;}
	.st11{fill:#0C0C0C;}
	.st12{fill:none;stroke:#0C0C0C;stroke-width:2;stroke-linecap:round;stroke-linejoin:round;stroke-miterlimit:10;}
	.st13{fill:#FFFFFF;stroke:#0C0C0C;stroke-width:2;stroke-linecap:round;stroke-linejoin:round;stroke-miterlimit:10;}
</style>
<g>
	<g>
		<path class="st3" d="M20.5,43.2c-0.6,0-1-0.4-1-1V10.8l-8.3,8.3c-0.4,0.4-1,0.4-1.4,0s-0.4-1,0-1.4l10-10c0.3-0.3,0.7-0.4,1.1-0.2
			c0.4,0.2,0.6,0.5,0.6,0.9v33.9C21.5,42.8,21,43.2,20.5,43.2z"/>
		<path class="st3" d="M28.7,43.2c-0.1,0-0.3,0-0.4-0.1c-0.4-0.2-0.6-0.5-0.6-0.9V8.4c0-0.6,0.4-1,1-1s1,0.4,1,1v31.4l8.3-8.3
			c0.4-0.4,1-0.4,1.4,0s0.4,1,0,1.4l-10,10C29.2,43.1,29,43.2,28.7,43.2z"/>
	</g>
</g>
</svg>
